<?xml version="1.0" encoding="utf-8"?>
<!-- Generator: Adobe Illustrator 21.0.0, SVG Export Plug-In . SVG Version: 6.00 Build 0)  -->
<svg version="1.1" id="Layer_1" xmlns="http://www.w3.org/2000/svg" xmlns:xlink="http://www.w3.org/1999/xlink" x="0px" y="0px"
	width="90px" height="90px" viewBox="0 0 120 120" style="enable-background:new 0 0 120 120;" xml:space="preserve">
<style type="text/css">
	.st0{fill:url(#SVGID_1_);}
	.st1{opacity:0.64;}
	.st2{fill:url(#SVGID_4_);}
	.st3{fill:#F1F2F2;}
	.st4{opacity:0.2;}
	.st5{fill:none;}
	.st6{fill-rule:evenodd;clip-rule:evenodd;fill:#000101;}
	.st7{fill-rule:evenodd;clip-rule:evenodd;fill:#58595B;}
	.st8{fill-rule:evenodd;clip-rule:evenodd;fill:#AD1F23;}
	.st9{fill:#58595B;}
	.st10{fill:#5D5E5E;}
	.st11{fill:none;stroke:#BCBEC0;stroke-miterlimit:10;}
	.st12{fill:none;stroke:#AD1F23;stroke-miterlimit:10;}
	.st13{fill:none;stroke:#FFFFFF;stroke-miterlimit:10;}
	.st14{fill:#D1D3D4;}
	.st15{fill:#AD1F23;}
	.st16{fill:none;stroke:#000000;stroke-width:0.5;stroke-miterlimit:10;}
	.st17{fill:none;stroke:#FFFFFF;stroke-width:0.5;stroke-miterlimit:10;}
	.st18{fill:none;stroke:#A7A9AC;stroke-miterlimit:10;}
	.st19{fill:none;stroke:#939598;stroke-width:0.5;stroke-miterlimit:10;}
	.st20{opacity:0.8;stroke:#FFFFFF;stroke-miterlimit:10;}
	.st21{fill:#FFFFFF;}
	.st22{opacity:0.15;}
	.st23{opacity:0.64;fill:url(#SVGID_19_);}
	.st24{opacity:0.83;}
</style>
<g>
	<path class="st21" d="M84.9,45.5c-0.7-1-1.8-1.7-3.1-1.7H38.2c-1.2,0-2.4,0.6-3.1,1.7l-9.9,15.3c-0.9,1.4-0.8,3.2,0.3,4.4
		l31.7,35.6c0.7,0.8,1.7,1.2,2.7,1.2s2-0.4,2.7-1.2l31.7-35.6c1.1-1.2,1.2-3,0.3-4.4L84.9,45.5z M80.7,46.4l-9.2,14.3l-9.2-14.3
		H80.7z M69.2,61.7H50.8L60,47.5L69.2,61.7z M57.7,46.4l-9.2,14.2l-9.2-14.2H57.7z M37,47.4l9.2,14.3H27.7L37,47.4z M28.2,64.3h19.3
		l10.2,33.2L28.2,64.3z M50.2,64.3h19.6L60,96L50.2,64.3z M62.2,97.4l10.2-33.2h19.3L62.2,97.4z M73.8,61.7l9.2-14.3l9.3,14.3H73.8z
		"/>
	<path class="st21" d="M20,61.7h-3.6c-0.7,0-1.3,0.6-1.3,1.3c0,0.7,0.6,1.3,1.3,1.3H20c0.7,0,1.3-0.6,1.3-1.3
		C21.2,62.3,20.7,61.7,20,61.7z"/>
	<path class="st21" d="M103.6,61.7H100c-0.7,0-1.3,0.6-1.3,1.3c0,0.7,0.6,1.3,1.3,1.3h3.6c0.7,0,1.3-0.6,1.3-1.3
		C104.9,62.3,104.3,61.7,103.6,61.7z"/>
	<path class="st21" d="M85.9,38.9l5.9-5.9c0.2-0.2,0.4-0.6,0.4-0.9c0-0.3-0.1-0.7-0.4-0.9c-0.2-0.2-0.6-0.4-0.9-0.4S90.2,31,90,31.2
		l-5.9,5.9c-0.2,0.2-0.4,0.6-0.4,0.9s0.1,0.7,0.4,0.9C84.6,39.4,85.4,39.4,85.9,38.9z"/>
	<path class="st21" d="M34.2,38.9c0.5,0.5,1.3,0.5,1.8,0c0.5-0.5,0.5-1.3,0-1.8l-5.9-5.9c-0.2-0.2-0.6-0.4-0.9-0.4
		c-0.3,0-0.7,0.1-0.9,0.4c-0.5,0.5-0.5,1.3,0,1.8L34.2,38.9z"/>
	<path class="st21" d="M60,32.2c0.7,0,1.3-0.6,1.3-1.3V19.3c0-0.7-0.6-1.3-1.3-1.3c-0.7,0-1.3,0.6-1.3,1.3v11.6
		C58.8,31.6,59.3,32.2,60,32.2z"/>
	<path class="st21" d="M60.9,37.8c0.2-0.2,0.4-0.6,0.4-0.9c0-0.3-0.1-0.7-0.4-0.9l0,0c-0.2-0.2-0.6-0.4-0.9-0.4
		c-0.3,0-0.7,0.1-0.9,0.4s-0.4,0.6-0.4,0.9c0,0.3,0.1,0.7,0.4,0.9C59.6,38.3,60.5,38.3,60.9,37.8z"/>
</g>
</svg>
