<?xml version="1.0" encoding="utf-8"?>
<!-- Generator: Adobe Illustrator 21.0.0, SVG Export Plug-In . SVG Version: 6.00 Build 0)  -->
<svg version="1.1" id="Layer_1" xmlns="http://www.w3.org/2000/svg" xmlns:xlink="http://www.w3.org/1999/xlink" x="0px" y="0px"
	width="90px" height="90px" viewBox="0 0 120 120" style="enable-background:new 0 0 120 120;" xml:space="preserve">
<style type="text/css">
	.st0{fill:url(#SVGID_1_);}
	.st1{opacity:0.64;}
	.st2{fill:url(#SVGID_4_);}
	.st3{fill:#F1F2F2;}
	.st4{opacity:0.2;}
	.st5{fill:none;}
	.st6{fill-rule:evenodd;clip-rule:evenodd;fill:#000101;}
	.st7{fill-rule:evenodd;clip-rule:evenodd;fill:#58595B;}
	.st8{fill-rule:evenodd;clip-rule:evenodd;fill:#AD1F23;}
	.st9{fill:#58595B;}
	.st10{fill:#5D5E5E;}
	.st11{fill:none;stroke:#BCBEC0;stroke-miterlimit:10;}
	.st12{fill:none;stroke:#AD1F23;stroke-miterlimit:10;}
	.st13{fill:none;stroke:#FFFFFF;stroke-miterlimit:10;}
	.st14{fill:#D1D3D4;}
	.st15{fill:#AD1F23;}
	.st16{fill:none;stroke:#000000;stroke-width:0.5;stroke-miterlimit:10;}
	.st17{fill:none;stroke:#FFFFFF;stroke-width:0.5;stroke-miterlimit:10;}
	.st18{fill:none;stroke:#A7A9AC;stroke-miterlimit:10;}
	.st19{fill:none;stroke:#939598;stroke-width:0.5;stroke-miterlimit:10;}
	.st20{opacity:0.8;stroke:#FFFFFF;stroke-miterlimit:10;}
	.st21{fill:#FFFFFF;}
	.st22{opacity:0.15;}
	.st23{opacity:0.64;fill:url(#SVGID_19_);}
	.st24{opacity:0.83;}
</style>
<g>
	<circle class="st21" cx="66.8" cy="90.1" r="1.4"/>
	<circle class="st21" cx="72.3" cy="90.1" r="1.4"/>
	<circle class="st21" cx="77.8" cy="90.1" r="1.4"/>
	<circle class="st21" cx="64.1" cy="64.1" r="1.4"/>
	<circle class="st21" cx="66.8" cy="49" r="1.4"/>
	<circle class="st21" cx="72.3" cy="49" r="1.4"/>
	<circle class="st21" cx="69.6" cy="46.3" r="1.4"/>
	<circle class="st21" cx="72.3" cy="43.6" r="1.4"/>
	<circle class="st21" cx="66.8" cy="54.5" r="1.4"/>
	<circle class="st21" cx="64.1" cy="51.8" r="1.4"/>
	<circle class="st21" cx="69.6" cy="51.8" r="1.4"/>
	<circle class="st21" cx="64.1" cy="68.2" r="1.4"/>
	<circle class="st21" cx="64.1" cy="72.3" r="1.4"/>
	<circle class="st21" cx="64.1" cy="76.4" r="1.4"/>
	<circle class="st21" cx="64.1" cy="80.5" r="1.4"/>
	<circle class="st21" cx="64.1" cy="84.6" r="1.4"/>
	<circle class="st21" cx="69.6" cy="87.4" r="1.4"/>
	<circle class="st21" cx="75.1" cy="87.4" r="1.4"/>
	<path class="st21" d="M51.8,34h-6.8c-0.8,0-1.4,0.6-1.4,1.4s0.6,1.4,1.4,1.4h6.8c0.8,0,1.4-0.6,1.4-1.4S52.5,34,51.8,34z"/>
	<path class="st21" d="M51.8,43.6H38.1c-0.8,0-1.4,0.6-1.4,1.4c0,0.8,0.6,1.4,1.4,1.4h13.7c0.8,0,1.4-0.6,1.4-1.4
		C53.2,44.2,52.5,43.6,51.8,43.6z"/>
	<path class="st21" d="M51.8,53.2H31.2c-0.8,0-1.4,0.6-1.4,1.4c0,0.8,0.6,1.4,1.4,1.4h20.5c0.8,0,1.4-0.6,1.4-1.4
		C53.2,53.8,52.5,53.2,51.8,53.2z"/>
	<path class="st21" d="M51.8,62.7h-26c-0.8,0-1.4,0.6-1.4,1.4c0,0.8,0.6,1.4,1.4,1.4h26c0.8,0,1.4-0.6,1.4-1.4
		C53.2,63.4,52.5,62.7,51.8,62.7z"/>
	<path class="st21" d="M51.8,72.3H34c-0.8,0-1.4,0.6-1.4,1.4c0,0.8,0.6,1.4,1.4,1.4h17.8c0.8,0,1.4-0.6,1.4-1.4
		C53.2,72.9,52.5,72.3,51.8,72.3z"/>
	<path class="st21" d="M51.8,81.9h-9.6c-0.8,0-1.4,0.6-1.4,1.4c0,0.8,0.6,1.4,1.4,1.4h9.6c0.8,0,1.4-0.6,1.4-1.4
		C53.2,82.5,52.5,81.9,51.8,81.9z"/>
	<path class="st21" d="M91.5,92.9h-6.8v-8.2C84.6,74.3,79,64.9,70,60c9-4.9,14.7-14.3,14.7-24.6v-8.2h6.8c2.3,0,4.1-1.8,4.1-4.1
		s-1.8-4.1-4.1-4.1H60c-0.8,0-1.4,0.6-1.4,1.4s0.6,1.4,1.4,1.4h31.5c0.8,0,1.4,0.6,1.4,1.4c0,0.8-0.6,1.4-1.4,1.4h-6.8H60
		c-0.8,0-1.4,0.6-1.4,1.4c0,0.8,0.6,1.4,1.4,1.4h21.9v8.2c0,10.3-6.1,19.4-15.6,23.4c0,0,0,0,0,0c0,0,0,0,0,0c0,0,0,0,0,0
		c-0.1,0.1-0.3,0.2-0.4,0.3c-0.1,0.1-0.2,0.2-0.2,0.3c0,0-0.1,0.1-0.1,0.1c0,0,0,0,0,0c-0.1,0.2-0.1,0.3-0.1,0.5s0,0.4,0.1,0.5
		c0,0,0,0,0,0c0.1,0.2,0.2,0.3,0.3,0.4c0,0,0.1,0.1,0.1,0.1c0.1,0.1,0.2,0.2,0.3,0.2c0,0,0,0,0.1,0c9.5,3.9,15.6,13.1,15.6,23.4v8.2
		c0-0.8-0.6-1.4-1.4-1.4c-0.8,0-1.4,0.6-1.4,1.4h-2.7c0-0.8-0.6-1.4-1.4-1.4c-0.8,0-1.4,0.6-1.4,1.4H71c0-0.8-0.6-1.4-1.4-1.4
		c-0.8,0-1.4,0.6-1.4,1.4h-2.7c0-0.8-0.6-1.4-1.4-1.4c-0.8,0-1.4,0.6-1.4,1.4H60c-0.8,0-1.4,0.6-1.4,1.4s0.6,1.4,1.4,1.4h24.6h6.8
		c0.8,0,1.4,0.6,1.4,1.4s-0.6,1.4-1.4,1.4H60c-0.8,0-1.4,0.6-1.4,1.4s0.6,1.4,1.4,1.4h31.5c2.3,0,4.1-1.8,4.1-4.1
		C95.6,94.7,93.8,92.9,91.5,92.9z"/>
</g>
</svg>
