<?xml version="1.0" encoding="utf-8"?>
<!-- Generator: Adobe Illustrator 21.0.0, SVG Export Plug-In . SVG Version: 6.00 Build 0)  -->
<svg version="1.1" id="Layer_1" xmlns="http://www.w3.org/2000/svg" xmlns:xlink="http://www.w3.org/1999/xlink" x="0px" y="0px"
	width="100px" height="100px" viewBox="0 0 150 150" style="enable-background:new 0 0 150 150;" xml:space="preserve">
<style type="text/css">
	.st0{fill:url(#SVGID_1_);}
	.st1{opacity:0.64;}
	.st2{fill:url(#SVGID_4_);}
	.st3{fill:#F1F2F2;}
	.st4{opacity:0.2;}
	.st5{fill:none;}
	.st6{fill-rule:evenodd;clip-rule:evenodd;fill:#000101;}
	.st7{fill-rule:evenodd;clip-rule:evenodd;fill:#58595B;}
	.st8{fill-rule:evenodd;clip-rule:evenodd;fill:#AD1F23;}
	.st9{fill:#58595B;}
	.st10{fill:#5D5E5E;}
	.st11{fill:none;stroke:#BCBEC0;stroke-miterlimit:10;}
	.st12{fill:none;stroke:#AD1F23;stroke-miterlimit:10;}
	.st13{fill:none;stroke:#FFFFFF;stroke-miterlimit:10;}
	.st14{fill:#D1D3D4;}
	.st15{fill:#AD1F23;}
	.st16{fill:none;stroke:#000000;stroke-width:0.5;stroke-miterlimit:10;}
	.st17{fill:none;stroke:#FFFFFF;stroke-width:0.5;stroke-miterlimit:10;}
	.st18{fill:none;stroke:#A7A9AC;stroke-miterlimit:10;}
	.st19{fill:none;stroke:#939598;stroke-width:0.5;stroke-miterlimit:10;}
	.st20{opacity:0.8;stroke:#FFFFFF;stroke-miterlimit:10;}
	.st21{fill:#FFFFFF;}
	.st22{opacity:0.15;}
	.st23{opacity:0.64;fill:url(#SVGID_19_);}
	.st24{opacity:0.83;}
</style>
<g>
	<g>
		<g>
			<path class="st15" d="M123,54.1L75.8,26.4c-0.5-0.3-1.1-0.3-1.6,0L27,52.4c-0.5,0.3-0.8,0.8-0.8,1.4v68.3c0,0.9,0.7,1.6,1.6,1.6
				H36c0.9,0,1.6-0.7,1.6-1.6V65.2h74.8v56.9c0,0.9,0.7,1.6,1.6,1.6h8.1c0.9,0,1.6-0.7,1.6-1.6V55.5C123.8,54.9,123.5,54.4,123,54.1
				z M120.5,120.5h-4.9V63.6c0-0.9-0.7-1.6-1.6-1.6H36c-0.9,0-1.6,0.7-1.6,1.6v56.9h-4.9V54.8L75,29.7l45.6,26.7L120.5,120.5
				L120.5,120.5z"/>
		</g>
	</g>
	<g>
		<g>
			<path class="st15" d="M107.5,101H88c-0.9,0-1.6,0.7-1.6,1.6v19.5c0,0.9,0.7,1.6,1.6,1.6h19.5c0.9,0,1.6-0.7,1.6-1.6v-19.5
				C109.2,101.8,108.4,101,107.5,101z M105.9,120.5H89.6v-16.3h16.3V120.5z"/>
		</g>
	</g>
	<g>
		<g>
			<path class="st15" d="M99.4,102.7v4.9h-3.3v-4.9h-3.3v6.5c0,0.9,0.7,1.6,1.6,1.6h6.5c0.9,0,1.6-0.7,1.6-1.6v-6.5H99.4z"/>
		</g>
	</g>
	<g>
		<g>
			<path class="st15" d="M88,101H68.5c-0.9,0-1.6,0.7-1.6,1.6v19.5c0,0.9,0.7,1.6,1.6,1.6H88c0.9,0,1.6-0.7,1.6-1.6v-19.5
				C89.6,101.8,88.9,101,88,101z M86.4,120.5H70.1v-16.3h16.3V120.5z"/>
		</g>
	</g>
	<g>
		<g>
			<path class="st15" d="M79.9,102.7v4.9h-3.3v-4.9h-3.3v6.5c0,0.9,0.7,1.6,1.6,1.6h6.5c0.9,0,1.6-0.7,1.6-1.6v-6.5H79.9z"/>
		</g>
	</g>
	<g>
		<g>
			<path class="st15" d="M107.5,81.5H88c-0.9,0-1.6,0.7-1.6,1.6v19.5c0,0.9,0.7,1.6,1.6,1.6h19.5c0.9,0,1.6-0.7,1.6-1.6V83.1
				C109.2,82.2,108.4,81.5,107.5,81.5z M105.9,101H89.6V84.8h16.3V101z"/>
		</g>
	</g>
	<g>
		<g>
			<path class="st15" d="M99.4,83.1V88h-3.3v-4.9h-3.3v6.5c0,0.9,0.7,1.6,1.6,1.6h6.5c0.9,0,1.6-0.7,1.6-1.6v-6.5H99.4z"/>
		</g>
	</g>
	<g>
		<g>
			<rect x="36" y="75" class="st15" width="78.1" height="3.3"/>
		</g>
	</g>
	<g>
		<g>
			<rect x="36" y="68.5" class="st15" width="78.1" height="3.3"/>
		</g>
	</g>
	<g>
		<g>
			<path class="st15" d="M83.1,49H66.9c-0.9,0-1.6,0.7-1.6,1.6v6.5c0,0.9,0.7,1.6,1.6,1.6h16.3c0.9,0,1.6-0.7,1.6-1.6v-6.5
				C84.8,49.7,84,49,83.1,49z M81.5,55.5h-13v-3.3h13V55.5z"/>
		</g>
	</g>
</g>
</svg>
