<?xml version="1.0" encoding="utf-8"?>
<!-- Generator: Adobe Illustrator 21.0.0, SVG Export Plug-In . SVG Version: 6.00 Build 0)  -->
<svg version="1.1" id="Layer_1" xmlns="http://www.w3.org/2000/svg" xmlns:xlink="http://www.w3.org/1999/xlink" x="0px" y="0px"
	width="100px" height="100px" viewBox="0 0 150 150" style="enable-background:new 0 0 150 150;" xml:space="preserve">
<style type="text/css">
	.st0{fill:url(#SVGID_1_);}
	.st1{opacity:0.64;}
	.st2{fill:url(#SVGID_4_);}
	.st3{fill:#F1F2F2;}
	.st4{opacity:0.2;}
	.st5{fill:none;}
	.st6{fill-rule:evenodd;clip-rule:evenodd;fill:#000101;}
	.st7{fill-rule:evenodd;clip-rule:evenodd;fill:#58595B;}
	.st8{fill-rule:evenodd;clip-rule:evenodd;fill:#AD1F23;}
	.st9{fill:#58595B;}
	.st10{fill:#5D5E5E;}
	.st11{fill:none;stroke:#BCBEC0;stroke-miterlimit:10;}
	.st12{fill:none;stroke:#AD1F23;stroke-miterlimit:10;}
	.st13{fill:none;stroke:#FFFFFF;stroke-miterlimit:10;}
	.st14{fill:#D1D3D4;}
	.st15{fill:#AD1F23;}
	.st16{fill:none;stroke:#000000;stroke-width:0.5;stroke-miterlimit:10;}
	.st17{fill:none;stroke:#FFFFFF;stroke-width:0.5;stroke-miterlimit:10;}
	.st18{fill:none;stroke:#A7A9AC;stroke-miterlimit:10;}
	.st19{fill:none;stroke:#939598;stroke-width:0.5;stroke-miterlimit:10;}
	.st20{opacity:0.8;stroke:#FFFFFF;stroke-miterlimit:10;}
	.st21{fill:#FFFFFF;}
	.st22{opacity:0.15;}
	.st23{opacity:0.64;fill:url(#SVGID_19_);}
	.st24{opacity:0.83;}
</style>
<g>
	<g>
		<g>
			<g>
				<path class="st15" d="M114.6,59.1C114.6,59.1,114.5,59.1,114.6,59.1h-92c-0.9,0-1.6,0.7-1.6,1.6c0,0,0,0,0,0v44.2
					c0,0.9,0.7,1.6,1.6,1.6c0,0,0,0,0,0h62.6c0.9,0,1.6-0.7,1.6-1.6c0-0.9-0.7-1.6-1.6-1.6h-61v-41H113v3.9c0,0.9,0.7,1.6,1.6,1.6
					c0,0,0,0,0,0c0.9,0,1.6-0.7,1.6-1.6c0,0,0,0,0,0v-5.5C116.1,59.8,115.4,59.1,114.6,59.1z"/>
			</g>
		</g>
		<g>
			<g>
				<path class="st15" d="M103.9,51.8L30.2,35.2c-0.4-0.1-0.8,0-1.2,0.2c-0.4,0.2-0.6,0.6-0.7,1L24.7,53c-0.2,0.9,0.3,1.7,1.2,1.9
					c0.9,0.2,1.7-0.3,1.9-1.2l3.3-15l72.1,16.2c0.1,0,0.2,0,0.3,0c0.9,0,1.6-0.7,1.6-1.6C105.1,52.6,104.6,51.9,103.9,51.8z"/>
			</g>
		</g>
		<g>
			<g>
				<path class="st15" d="M94.9,42.6L50.8,24.2c-0.8-0.3-1.7,0-2,0.8L45,32.3c-0.4,0.8-0.1,1.7,0.6,2.1c0.8,0.4,1.7,0.1,2.1-0.6
					c0,0,0-0.1,0-0.1v0l3-6l42.8,17.8c0.8,0.3,1.7,0,2.1-0.9C96.1,43.9,95.7,43,94.9,42.6z"/>
			</g>
		</g>
		<g>
			<g>
				<path class="st15" d="M96,66.4H81.4c-0.9,0-1.6,0.7-1.6,1.6c0,0.9,0.7,1.6,1.6,1.6H96c0.9,0,1.6-0.7,1.6-1.6
					C97.6,67.1,96.9,66.4,96,66.4z"/>
			</g>
		</g>
		<g>
			<g>
				<path class="st15" d="M66.7,66.5c-8.9,0-16.2,7.2-16.2,16.2c0,8.9,7.3,16.2,16.2,16.2c8.9,0,16.2-7.2,16.2-16.2
					S75.6,66.5,66.7,66.5z M66.7,96c-7.3,0-13.2-5.9-13.2-13.2c0-7.3,5.9-13.2,13.2-13.2C74,69.5,80,75.4,80,82.7
					C80,90.1,74,96,66.7,96z"/>
			</g>
		</g>
		<g>
			<g>
				<path class="st15" d="M110.9,71.7c-9.8,0-20.2,2.3-20.2,7.4v44.2c0,5.1,10.5,7.4,20.2,7.4s20.2-2.3,20.2-7.4V79.1
					C131.1,74,120.6,71.7,110.9,71.7z M127.4,123.2c-0.3,1-5.8,3.7-16.6,3.7s-16.3-2.7-16.6-3.7v-2.9c3.9,2,10.4,2.9,16.6,2.9
					s12.6-0.9,16.6-2.9V123.2z M127.4,115.8c-0.3,1-5.8,3.7-16.6,3.7s-16.3-2.7-16.6-3.7V113c3.9,2,10.4,2.9,16.6,2.9
					s12.6-0.9,16.6-2.9V115.8z M127.4,108.5c-0.3,1-5.8,3.7-16.6,3.7s-16.3-2.7-16.6-3.7v-2.9c3.9,2,10.4,2.9,16.6,2.9
					s12.6-0.9,16.6-2.9V108.5z M127.4,101.1c-0.3,1-5.8,3.7-16.6,3.7s-16.3-2.7-16.6-3.7v-2.9c3.9,2,10.4,2.9,16.6,2.9
					s12.6-0.9,16.6-2.9V101.1z M127.4,93.8c-0.3,1-5.8,3.7-16.6,3.7s-16.3-2.7-16.6-3.7v-2.9c3.9,2,10.4,2.9,16.6,2.9
					s12.6-0.9,16.6-2.9V93.8z M127.4,86.4c-0.3,1-5.8,3.7-16.6,3.7s-16.3-2.7-16.6-3.7v-2.9c3.9,2,10.4,2.9,16.6,2.9
					s12.6-0.9,16.6-2.9V86.4z M110.9,82.7c-10.7,0-16.3-2.7-16.6-3.6v0c0.3-1,5.8-3.7,16.6-3.7c10.7,0,16.2,2.6,16.6,3.7
					C127.1,80.1,121.5,82.7,110.9,82.7z"/>
			</g>
		</g>
		<g>
			<g>
				<path class="st15" d="M52,95.9H38.1l-6.6-7.2v-12l7.3-7.1H52c0.9,0,1.6-0.7,1.6-1.6c0-0.9-0.7-1.6-1.6-1.6H38.1
					c-0.4,0-0.8,0.2-1.1,0.4l-8.2,8c-0.3,0.4-0.5,0.8-0.5,1.3v13.1c0,0.4,0.1,0.8,0.4,1.1l7.5,8.2c0.3,0.3,0.7,0.5,1.2,0.5H52
					c0.9,0,1.6-0.7,1.6-1.6S52.9,95.9,52,95.9z"/>
			</g>
		</g>
		<g>
			<g>
				<path class="st15" d="M67.6,80.9h-1.8c-0.6,0-0.9-0.3-0.9-0.5c0-0.1,0.3-0.5,0.9-0.5h4.6c1,0,1.8-0.8,1.8-1.8
					c0-1-0.8-1.8-1.8-1.8h-1.8c0-1-0.8-1.8-1.8-1.8s-1.8,0.8-1.8,1.8v0.1c-2,0.3-3.6,2-3.7,4c0.1,2.4,2.2,4.3,4.6,4.1h1.8
					c0.6,0,0.9,0.3,0.9,0.5s-0.3,0.5-0.9,0.5H63c-1,0-1.8,0.8-1.8,1.8s0.8,1.8,1.8,1.8h1.8c0,1,0.8,1.8,1.8,1.8s1.8-0.8,1.8-1.8
					v-0.1c2-0.3,3.6-2,3.7-4C72.1,82.6,70,80.8,67.6,80.9z"/>
			</g>
		</g>
	</g>
</g>
</svg>
