<?xml version="1.0" encoding="utf-8"?>
<!-- Generator: Adobe Illustrator 21.0.0, SVG Export Plug-In . SVG Version: 6.00 Build 0)  -->
<svg version="1.1" id="Layer_1" xmlns="http://www.w3.org/2000/svg" xmlns:xlink="http://www.w3.org/1999/xlink" x="0px" y="0px"
	width="100px" height="100px" viewBox="0 0 150 150" style="enable-background:new 0 0 150 150;" xml:space="preserve">
<style type="text/css">
	.st0{fill:url(#SVGID_1_);}
	.st1{opacity:0.64;}
	.st2{fill:url(#SVGID_4_);}
	.st3{fill:#F1F2F2;}
	.st4{opacity:0.2;}
	.st5{fill:none;}
	.st6{fill-rule:evenodd;clip-rule:evenodd;fill:#000101;}
	.st7{fill-rule:evenodd;clip-rule:evenodd;fill:#58595B;}
	.st8{fill-rule:evenodd;clip-rule:evenodd;fill:#AD1F23;}
	.st9{fill:#58595B;}
	.st10{fill:#5D5E5E;}
	.st11{fill:none;stroke:#BCBEC0;stroke-miterlimit:10;}
	.st12{fill:none;stroke:#AD1F23;stroke-miterlimit:10;}
	.st13{fill:none;stroke:#FFFFFF;stroke-miterlimit:10;}
	.st14{fill:#D1D3D4;}
	.st15{fill:#AD1F23;}
	.st16{fill:none;stroke:#000000;stroke-width:0.5;stroke-miterlimit:10;}
	.st17{fill:none;stroke:#FFFFFF;stroke-width:0.5;stroke-miterlimit:10;}
	.st18{fill:none;stroke:#A7A9AC;stroke-miterlimit:10;}
	.st19{fill:none;stroke:#939598;stroke-width:0.5;stroke-miterlimit:10;}
	.st20{opacity:0.8;stroke:#FFFFFF;stroke-miterlimit:10;}
	.st21{fill:#FFFFFF;}
	.st22{opacity:0.15;}
	.st23{opacity:0.64;fill:url(#SVGID_19_);}
	.st24{opacity:0.83;}
</style>
<g>
	<g>
		<g>
			<g>
				<path class="st15" d="M47.1,58.5c-0.8-0.8-2.1-0.8-2.9,0c-0.8,0.8-0.8,2.1,0,2.9c0.8,0.8,2.1,0.8,2.9,0
					C47.9,60.6,47.9,59.3,47.1,58.5z"/>
			</g>
		</g>
		<g>
			<g>
				<path class="st15" d="M74.4,113.7c0.9-1.2,1.4-2.7,1.4-4.2c0-3.9-3.2-7.1-7.1-7.1H34.5c-1.9,0-3.7,0.7-5,2.1
					c-1.3,1.3-2.1,3.1-2.1,5c0,1.6,0.5,3,1.4,4.2c-3.2,1.7-5.4,5.1-5.4,8.9v2c0,1.1,0.9,2,2,2h52.4c1.1,0,2-0.9,2-2v-2
					C79.8,118.7,77.6,115.4,74.4,113.7z M32.3,107.3c0.6-0.6,1.3-0.9,2.1-0.9h34.3c1.7,0,3,1.4,3,3c0,0.8-0.3,1.6-0.9,2.1
					c-0.6,0.6-1.3,0.9-2.1,0.9H34.5c-1.7,0-3-1.4-3-3C31.4,108.7,31.8,107.9,32.3,107.3z M27.4,122.6c0-3.3,2.7-6.1,6.1-6.1h1h34.3
					h1c3.3,0,6.1,2.7,6.1,6.1H27.4z"/>
			</g>
		</g>
		<g>
			<g>
				<path class="st15" d="M124.8,108.1c-0.7-1.1-1.5-2-2.4-2.8l-9.4-8.2c-0.1-0.1-0.2-0.2-0.3-0.3c-0.2-0.2-0.3-0.3-0.5-0.4l-5.7-5
					L80,68.4c1.1-1.1,1.7-2.6,1.7-4.2c0-1.6-0.6-3.1-1.8-4.3c-0.5-0.5-1.1-0.9-1.7-1.2l2.4-2.4c0.7,0.2,1.4,0.3,2.1,0.3
					c2.1,0,4.1-0.8,5.7-2.4c1.5-1.5,2.4-3.5,2.4-5.7c0-2.2-0.8-4.2-2.4-5.7L71.4,25.7c-1.5-1.5-3.6-2.4-5.7-2.4
					c-2.2,0-4.2,0.8-5.7,2.4c-2.1,2.1-2.8,5.1-2.1,7.8L33.5,57.9c-0.7-0.2-1.4-0.3-2.1-0.3c-2.2,0-4.2,0.8-5.7,2.4
					c-3.1,3.1-3.1,8.3,0,11.4l17.1,17.1c1.6,1.6,3.6,2.4,5.7,2.4c2.1,0,4.1-0.8,5.7-2.4c2.1-2.1,2.8-5.1,2.1-7.8l2.4-2.4
					c0.3,0.6,0.7,1.2,1.2,1.7c1.1,1.1,2.7,1.8,4.3,1.8c1.6,0,3-0.6,4.2-1.7l28.1,32.3c0.1,0.1,0.2,0.2,0.3,0.3c0,0,0.1,0.1,0.1,0.1
					l8.4,9.6c0.2,0.2,0.4,0.5,0.7,0.7c2.3,2.3,5.3,3.5,8.5,3.5c0.6,0,1.1,0,1.7-0.1c3.8-0.5,7.1-2.8,9-6.2
					C127.3,116.5,127.1,111.7,124.8,108.1z M62.8,28.6c0.8-0.8,1.8-1.2,2.9-1.2c1.1,0,2.1,0.4,2.9,1.2l17.1,17.1
					c0.8,0.8,1.2,1.8,1.2,2.9s-0.4,2.1-1.2,2.9c-1.6,1.6-4.1,1.6-5.7,0L62.8,34.3c0,0,0,0,0,0C61.2,32.7,61.2,30.2,62.8,28.6z
					 M51.4,85.6c-1.6,1.6-4.1,1.6-5.7,0L28.6,68.5c-1.6-1.6-1.6-4.1,0-5.7c0.8-0.8,1.8-1.2,2.9-1.2c1.1,0,2.1,0.4,2.9,1.2l17.1,17.1
					C53,81.5,53,84.1,51.4,85.6z M59.9,71.4l-5.6,5.6L37.1,60L60,37.1l17.1,17.1l-5.6,5.6c0,0,0,0-0.1,0.1L59.9,71.4
					C59.9,71.4,59.9,71.4,59.9,71.4z M67.1,75.6C67.1,75.6,67.1,75.6,67.1,75.6l-1.4,1.4c-0.4,0.4-0.9,0.6-1.4,0.6
					c-0.5,0-1-0.2-1.4-0.6c-0.4-0.4-0.6-0.9-0.6-1.4c0-0.5,0.2-1,0.6-1.4l11.5-11.5c0.8-0.8,2.1-0.8,2.8,0c0.4,0.4,0.6,0.9,0.6,1.4
					c0,0.5-0.2,1-0.6,1.4l-1.4,1.4c0,0,0,0,0,0L67.1,75.6z M71.3,77.2l5.9-5.9l25,21.8l-9.1,9.1L71.3,77.2z M95.7,105.2l9.5-9.5
					l3,2.7l-9.9,9.9L95.7,105.2z M121.6,118.3c-1.3,2.3-3.5,3.9-6,4.2c-2.5,0.4-5-0.5-6.8-2.3c-0.2-0.2-0.3-0.3-0.4-0.5c0,0,0,0,0,0
					l-7.3-8.4l10.3-10.3l8.4,7.3c0,0,0,0,0,0c0.6,0.5,1.2,1.2,1.7,1.9C122.9,112.6,123,115.9,121.6,118.3z"/>
			</g>
		</g>
		<g>
			<g>
				<path class="st15" d="M61.4,44.3c-0.8-0.8-2.1-0.8-2.9,0L50,52.8c-0.8,0.8-0.8,2.1,0,2.9c0.4,0.4,0.9,0.6,1.4,0.6s1-0.2,1.4-0.6
					l8.6-8.6C62.2,46.3,62.2,45.1,61.4,44.3z"/>
			</g>
		</g>
	</g>
</g>
</svg>
