<?xml version="1.0" encoding="utf-8"?>
<!-- Generator: Adobe Illustrator 21.0.0, SVG Export Plug-In . SVG Version: 6.00 Build 0)  -->
<svg version="1.1" id="Layer_1" xmlns="http://www.w3.org/2000/svg" xmlns:xlink="http://www.w3.org/1999/xlink" x="0px" y="0px"
	width="90px" height="90px" viewBox="0 0 120 120" style="enable-background:new 0 0 120 120;" xml:space="preserve">
<style type="text/css">
	.st0{fill:url(#SVGID_1_);}
	.st1{opacity:0.64;}
	.st2{fill:url(#SVGID_4_);}
	.st3{fill:#F1F2F2;}
	.st4{opacity:0.2;}
	.st5{fill:none;}
	.st6{fill-rule:evenodd;clip-rule:evenodd;fill:#000101;}
	.st7{fill-rule:evenodd;clip-rule:evenodd;fill:#58595B;}
	.st8{fill-rule:evenodd;clip-rule:evenodd;fill:#AD1F23;}
	.st9{fill:#58595B;}
	.st10{fill:#5D5E5E;}
	.st11{fill:none;stroke:#BCBEC0;stroke-miterlimit:10;}
	.st12{fill:none;stroke:#AD1F23;stroke-miterlimit:10;}
	.st13{fill:none;stroke:#FFFFFF;stroke-miterlimit:10;}
	.st14{fill:#D1D3D4;}
	.st15{fill:#AD1F23;}
	.st16{fill:none;stroke:#000000;stroke-width:0.5;stroke-miterlimit:10;}
	.st17{fill:none;stroke:#FFFFFF;stroke-width:0.5;stroke-miterlimit:10;}
	.st18{fill:none;stroke:#A7A9AC;stroke-miterlimit:10;}
	.st19{fill:none;stroke:#939598;stroke-width:0.5;stroke-miterlimit:10;}
	.st20{opacity:0.8;stroke:#FFFFFF;stroke-miterlimit:10;}
	.st21{fill:#FFFFFF;}
	.st22{opacity:0.15;}
	.st23{opacity:0.64;fill:url(#SVGID_19_);}
	.st24{opacity:0.83;}
</style>
<g>
	<g>
		<g>
			<path class="st21" d="M88.2,22.9c-0.1,0-0.2,0-0.3,0c-9.4,1.9-19.2,0.2-27.4-4.8l-1.9-1.2c-0.5-0.3-1-0.3-1.5,0l-1.9,1.2
				c-8.2,5-18,6.8-27.4,4.8c-0.8-0.2-1.5,0.3-1.7,1.1c0,0.1,0,0.2,0,0.3v44.4c0,5.7,1.5,11.3,4.4,16.2c3.3,5.7,8.3,10.1,14.3,12.8
				l12.5,5.5c0.4,0.2,0.8,0.2,1.2,0l12.5-5.5c0.7-0.3,1.4-0.6,2.1-1c0.7-0.4,1-1.2,0.6-2c-0.4-0.7-1.2-1-2-0.6
				c-0.6,0.3-1.2,0.6-1.9,0.9l-11.9,5.2L46,95.1c-5.4-2.4-10-6.4-13-11.6c-2.6-4.5-4-9.6-4-14.8V26.1c9.6,1.5,19.4-0.4,27.7-5.5
				l1.2-0.7l1.2,0.7c8.3,5.1,18.1,7.1,27.7,5.5v42.6c0,0.8,0.6,1.4,1.4,1.4c0.8,0,1.4-0.6,1.4-1.4V24.4C89.6,23.6,89,22.9,88.2,22.9
				z"/>
		</g>
	</g>
	<g>
		<g>
			<path class="st21" d="M57.8,27.5c-0.4-0.7-1.2-1-2-0.6c0,0-0.1,0-0.1,0.1c-6.7,3.9-14.5,5.2-22.1,3.7c-0.8-0.2-1.5,0.3-1.7,1.1
				c0,0.1,0,0.2,0,0.3v34.5c0,4.5,1.3,8.9,3.6,12.8c2.8,4.5,6.9,8,11.8,10c0.7,0.3,1.6,0,1.9-0.8c0.3-0.7,0-1.6-0.8-1.9
				c-4.3-1.8-8-4.9-10.4-8.9c-2.1-3.4-3.2-7.3-3.2-11.3V33.9c7.7,1.1,15.6-0.4,22.4-4.4C57.9,29.1,58.1,28.2,57.8,27.5z"/>
		</g>
	</g>
	<g>
		<g>
			<path class="st21" d="M93.4,89.3c-0.5-0.5-1.3-0.5-1.9,0l-6.9,6.9c-0.5-0.1-1-0.1-1.5,0L70.4,83.5c-0.6-0.6-1.5-0.5-2,0
				c-0.5,0.6-0.5,1.4,0,2l12.7,12.7c-0.4,1.5,0.5,3.1,2,3.5c0.3,0.1,0.5,0.1,0.8,0.1c1.6,0,2.9-1.3,2.9-2.9c0-0.2,0-0.5-0.1-0.7
				l6.9-6.9C94,90.7,94,89.8,93.4,89.3z"/>
		</g>
	</g>
	<g>
		<g>
			<path class="st21" d="M80.5,48.9l-5.8-5.8c-0.6-0.6-1.5-0.6-2,0L55,60.8l-4.8-4.8c-0.6-0.6-1.5-0.6-2,0l-5.8,5.8
				c-0.6,0.6-0.6,1.5,0,2L54,75.4c0.3,0.3,0.6,0.4,1,0.4c0.4,0,0.7-0.2,1-0.4l24.5-24.5C81.1,50.4,81.1,49.4,80.5,48.9z M55,72.4
				l-9.5-9.5l3.7-3.7l4.8,4.8c0.6,0.6,1.5,0.6,2,0l17.7-17.7l3.7,3.7L55,72.4z"/>
		</g>
	</g>
</g>
</svg>
